HIERARCHY
ROOT Hips
{
	OFFSET -0.001795 -0.223333 0.028219
	CHANNELS 6 Xposition Yposition Zposition Zrotation Yrotation Xrotation 
	JOINT LeftUpLeg
	{
		OFFSET 0.069520 -0.091406 -0.006815
		CHANNELS 3 Zrotation Yrotation Xrotation
		JOINT LeftLeg
		{
			OFFSET 0.034277 -0.375199 -0.004496
			CHANNELS 3 Zrotation Yrotation Xrotation
			JOINT LeftFoot
			{
				OFFSET -0.013596 -0.397961 -0.043693
				CHANNELS 3 Zrotation Yrotation Xrotation
				JOINT LeftToe
				{
					OFFSET 0.026358 -0.055791 0.119288
					CHANNELS 3 Zrotation Yrotation Xrotation
					End Site
					{
						OFFSET 0.000000 0.000000 0.000000
					}
				}
			}
		}
	}
	JOINT RightUpLeg
	{
		OFFSET -0.067670 -0.090522 -0.004320
		CHANNELS 3 Zrotation Yrotation Xrotation
		JOINT RightLeg
		{
			OFFSET -0.038290 -0.382569 -0.008850
			CHANNELS 3 Zrotation Yrotation Xrotation
			JOINT RightFoot
			{
				OFFSET 0.015774 -0.398415 -0.042312
				CHANNELS 3 Zrotation Yrotation Xrotation
				JOINT RightToe
				{
					OFFSET -0.025372 -0.048144 0.123348
					CHANNELS 3 Zrotation Yrotation Xrotation
					End Site
					{
						OFFSET 0.000000 0.000000 0.000000
					}
				}
			}
		}
	}
	JOINT Spine
	{
		OFFSET -0.002533 0.108963 -0.026696
		CHANNELS 3 Zrotation Yrotation Xrotation
		JOINT Spine1
		{
			OFFSET 0.005487 0.135180 0.001092
			CHANNELS 3 Zrotation Yrotation Xrotation
			JOINT Spine2
			{
				OFFSET 0.001457 0.052922 0.025425
				CHANNELS 3 Zrotation Yrotation Xrotation
				JOINT Neck
				{
					OFFSET -0.002778 0.213870 -0.042857
					CHANNELS 3 Zrotation Yrotation Xrotation
					JOINT Head
					{
						OFFSET 0.005152 0.064970 0.051349
						CHANNELS 3 Zrotation Yrotation Xrotation
						End Site
						{
							OFFSET 0.000000 0.000000 0.000000
						}
					}
				}
				JOINT LeftShoulder
				{
					OFFSET 0.078845 0.121749 -0.034090
					CHANNELS 3 Zrotation Yrotation Xrotation
					JOINT LeftArm
					{
						OFFSET 0.090977 0.030469 -0.008868
						CHANNELS 3 Zrotation Yrotation Xrotation
						JOINT LeftForeArm
						{
							OFFSET 0.259612 -0.012772 -0.027456
							CHANNELS 3 Zrotation Yrotation Xrotation
							JOINT LeftHand
							{
								OFFSET 0.249234 0.008986 -0.001171
								CHANNELS 3 Zrotation Yrotation Xrotation
								End Site
								{
									OFFSET 0.000000 0.000000 0.000000
								}
							}
						}
					}
				}
				JOINT RightShoulder
				{
					OFFSET -0.081759 0.118833 -0.038615
					CHANNELS 3 Zrotation Yrotation Xrotation
					JOINT RightArm
					{
						OFFSET -0.096012 0.032551 -0.009143
						CHANNELS 3 Zrotation Yrotation Xrotation
						JOINT RightForeArm
						{
							OFFSET -0.253742 -0.013329 -0.021401
							CHANNELS 3 Zrotation Yrotation Xrotation
							JOINT RightHand
							{
								OFFSET -0.255298 0.007772 -0.005559
								CHANNELS 3 Zrotation Yrotation Xrotation
								End Site
								{
									OFFSET 0.000000 0.000000 0.000000
								}
							}
						}
					}
				}
			}
		}
	}
}
MOTION
Frames: 6
Frame Time: 0.050000
0.000000 0.947967 0.000000 -2.304685 2.479293 6.737286 5.886838 -0.358032 -3.991221 5.369589 -0.322339 -2.867062 -0.205796 4.772194 12.613824 0.000000 0.000000 0.000000 -3.512268 0.634263 -7.308758 -0.800003 -0.007229 -2.018188 -5.435073 -15.700724 23.217155 0.000000 0.000000 0.000000 0.957654 0.086467 -2.446264 0.972386 -0.293010 -3.767306 0.447405 -1.353698 3.980153 0.105856 0.549079 -8.564486 0.000000 0.000000 0.000000 -17.958378 3.296283 -3.450495 -55.798557 -5.637753 -3.933996 -9.135761 -19.047092 2.242525 0.000000 0.000000 0.000000 14.210710 -2.325222 -2.471701 60.500961 5.330821 -3.055420 4.580427 17.444869 1.177526 0.000000 0.000000 0.000000 
0.000175 0.947202 0.000204 -2.574865 1.212459 7.164817 5.468478 -0.336011 -3.664229 6.386377 -0.340359 -3.667593 0.456900 5.729942 12.786921 0.000000 0.000000 0.000000 -3.725015 0.672746 -7.767293 -0.068417 -0.089676 -2.412102 -4.780202 -14.929779 22.864893 0.000000 0.000000 0.000000 1.563812 0.077000 -2.393791 -0.105121 0.162136 -3.913705 1.313565 -0.906435 3.353441 -1.038006 1.297423 -8.401758 0.000000 0.000000 0.000000 -18.475181 4.694693 -4.180674 -55.346092 -5.153280 -4.059150 -9.929960 -19.727966 2.475480 0.000000 0.000000 0.000000 13.625556 -3.022582 -2.825194 61.010125 4.405402 -3.502040 5.270284 18.727421 1.353450 0.000000 0.000000 0.000000 
0.000325 0.946949 0.000140 -2.254940 1.491667 7.068032 5.364643 -0.331642 -3.536201 5.983945 -0.294282 -3.838277 0.285566 5.474421 12.734674 0.000000 0.000000 0.000000 -3.901733 0.664988 -7.793534 -0.370464 -0.049255 -2.071293 -4.985292 -15.171579 22.715236 0.000000 0.000000 0.000000 1.418161 0.060958 -2.056509 0.039970 0.142940 -5.222098 0.617793 -1.277476 3.805909 -1.145924 1.336179 -7.770656 0.000000 0.000000 0.000000 -17.389600 4.094788 -3.683547 -55.754632 -4.994444 -4.206143 -9.331687 -19.227295 2.314468 0.000000 0.000000 0.000000 15.291309 -2.345798 -2.722786 59.337030 4.451793 -3.419911 4.969480 18.482804 1.292641 0.000000 0.000000 0.000000 
0.000404 0.946678 0.000129 -2.621413 1.034330 7.390131 5.459490 -0.350058 -3.966794 6.441461 -0.361436 -3.487637 0.604741 5.897808 12.630246 0.000000 0.000000 0.000000 -3.835837 0.736768 -8.734421 0.152207 -0.061287 -1.188442 -4.793608 -14.952151 22.527704 0.000000 0.000000 0.000000 1.603619 0.058406 -2.078882 -0.644785 0.418716 -5.155631 1.606976 -1.968749 2.963099 -1.815310 1.710601 -7.247877 0.000000 0.000000 0.000000 -16.689929 5.002308 -3.838919 -56.759889 -4.978774 -4.183953 -8.838423 -19.340794 2.283072 0.000000 0.000000 0.000000 14.350562 -2.366740 -2.838733 59.109673 4.635943 -3.249501 6.069853 18.705139 1.419885 0.000000 0.000000 0.000000 
0.000419 0.946478 0.000110 -2.484086 1.415682 7.193033 5.247228 -0.337515 -3.649045 6.624145 -0.339945 -3.843027 0.382883 5.588187 12.622626 0.000000 0.000000 0.000000 -3.886377 0.716764 -8.547973 0.017769 -0.041611 -1.013296 -5.017857 -15.215090 22.473717 0.000000 0.000000 0.000000 1.368604 0.052362 -1.884613 -0.339510 0.295973 -5.106069 1.382352 -2.183414 2.785033 -2.103669 1.921273 -7.440152 0.000000 0.000000 0.000000 -16.569344 4.769071 -3.716721 -56.305464 -5.392647 -3.945140 -9.252463 -18.736472 2.270081 0.000000 0.000000 0.000000 14.470593 -2.660329 -2.992785 58.797708 4.973827 -3.046365 6.567536 18.220280 1.449083 0.000000 0.000000 0.000000 
0.000462 0.946523 0.000098 -2.525489 1.253832 7.255074 5.049736 -0.335221 -3.630495 7.017067 -0.361534 -3.924755 0.458381 5.718113 12.713300 0.000000 0.000000 0.000000 -3.795391 0.746439 -8.920045 -0.088771 -0.011603 -0.521704 -4.957321 -15.148654 22.399286 0.000000 0.000000 0.000000 1.172474 0.056957 -1.906715 -0.329952 0.292105 -5.186532 1.756890 -2.450052 2.735583 -2.190935 1.947597 -7.089938 0.000000 0.000000 0.000000 -16.556679 5.181879 -3.844006 -56.387686 -5.296420 -3.986181 -9.153143 -18.781002 2.275143 0.000000 0.000000 0.000000 14.113152 -2.380556 -2.881668 58.786167 5.426904 -2.830711 6.183872 17.817503 1.347121 0.000000 0.000000 0.000000 
